<svg xmlns="http://www.w3.org/2000/svg" xmlns:xlink="http://www.w3.org/1999/xlink" width="250" zoomAndPan="magnify" viewBox="0 0 187.5 187.499992" height="250" preserveAspectRatio="xMidYMid meet" version="1.0"><defs><g/></defs><path stroke-linecap="round" transform="matrix(-0.0590134, -0.745674, 0.745674, -0.0590134, 22.39174, 167.719608)" fill="none" stroke-linejoin="miter" d="M 1.001173 0.999723 L 101.193846 0.997915 " stroke="#000000" stroke-width="2" stroke-opacity="1" stroke-miterlimit="4"/><g fill="#000000" fill-opacity="1"><g transform="translate(13.182032, 178.78319)"><g><path d="M 10.25 0 L 8.8125 0 L 7.765625 -3.125 L 2.90625 -3.125 L 1.859375 0 L 0.453125 0 L 4.421875 -11.390625 L 6.28125 -11.390625 Z M 5.25 -10.015625 L 3.28125 -4.25 L 7.390625 -4.25 L 5.4375 -10.015625 Z M 5.25 -10.015625 "/></g></g></g><path stroke-linecap="round" transform="matrix(0.674437, -0.323491, 0.323491, 0.674437, 16.78516, 90.783572)" fill="none" stroke-linejoin="miter" d="M 0.99877 0.996882 L 218.666336 1.001954 " stroke="#000000" stroke-width="2" stroke-opacity="1" stroke-miterlimit="4"/><path stroke-linecap="butt" transform="matrix(0.519438, -0.538234, 0.538234, 0.519438, 22.600318, 167.140343)" fill="none" stroke-linejoin="miter" d="M -0.00206242 0.998584 L 273.60516 0.99673 " stroke="#000000" stroke-width="2" stroke-opacity="1" stroke-miterlimit="4"/><path stroke-linecap="round" transform="matrix(-0.0227329, -0.74766, 0.74766, -0.0227329, 168.717877, 158.800259)" fill="none" stroke-linejoin="miter" d="M 0.998208 0.998076 L 184.085056 1.000668 " stroke="#000000" stroke-width="2" stroke-opacity="1" stroke-miterlimit="4"/><path stroke-linecap="butt" transform="matrix(0.684192, 0.302313, -0.302313, 0.684192, 17.410955, 90.777604)" fill="none" stroke-linejoin="miter" d="M 0.000431815 0.998554 L 222.685383 0.998326 " stroke="#000000" stroke-width="2" stroke-opacity="1" stroke-miterlimit="4"/><path stroke-linecap="round" transform="matrix(0.746631, -0.0453226, 0.0453226, 0.746631, 23.094527, 166.916205)" fill="none" stroke-linejoin="miter" d="M 1.000344 0.999585 L 194.986423 0.998236 " stroke="#000000" stroke-width="2" stroke-opacity="1" stroke-miterlimit="4"/><g fill="#000000" fill-opacity="1"><g transform="translate(3.902092, 93.636519)"><g><path d="M 1.71875 0 L 1.71875 -11.390625 L 6.03125 -11.390625 C 6.738281 -11.390625 7.332031 -11.273438 7.8125 -11.046875 C 8.300781 -10.828125 8.671875 -10.507812 8.921875 -10.09375 C 9.171875 -9.6875 9.296875 -9.195312 9.296875 -8.625 C 9.296875 -8.132812 9.160156 -7.6875 8.890625 -7.28125 C 8.617188 -6.882812 8.238281 -6.570312 7.75 -6.34375 L 7.75 -6.1875 C 8.5 -6 9.070312 -5.65625 9.46875 -5.15625 C 9.863281 -4.664062 10.0625 -4.046875 10.0625 -3.296875 C 10.0625 -2.242188 9.75 -1.429688 9.125 -0.859375 C 8.5 -0.285156 7.578125 0 6.359375 0 Z M 5.96875 -6.609375 C 6.601562 -6.609375 7.09375 -6.769531 7.4375 -7.09375 C 7.789062 -7.425781 7.96875 -7.878906 7.96875 -8.453125 C 7.96875 -9.066406 7.796875 -9.523438 7.453125 -9.828125 C 7.117188 -10.128906 6.625 -10.28125 5.96875 -10.28125 L 3.0625 -10.28125 L 3.0625 -6.609375 Z M 6.265625 -1.109375 C 7.878906 -1.109375 8.6875 -1.835938 8.6875 -3.296875 C 8.6875 -4.765625 7.878906 -5.5 6.265625 -5.5 L 3.0625 -5.5 L 3.0625 -1.109375 Z M 6.265625 -1.109375 "/></g></g></g><g fill="#000000" fill-opacity="1"><g transform="translate(164.512848, 18.762462)"><g><path d="M 6.296875 0.15625 C 5.296875 0.15625 4.40625 -0.0664062 3.625 -0.515625 C 2.851562 -0.972656 2.242188 -1.640625 1.796875 -2.515625 C 1.359375 -3.398438 1.140625 -4.457031 1.140625 -5.6875 C 1.140625 -6.925781 1.359375 -7.984375 1.796875 -8.859375 C 2.242188 -9.742188 2.851562 -10.410156 3.625 -10.859375 C 4.40625 -11.316406 5.296875 -11.546875 6.296875 -11.546875 C 7.359375 -11.546875 8.242188 -11.34375 8.953125 -10.9375 C 9.660156 -10.539062 10.171875 -9.9375 10.484375 -9.125 L 9.625 -8.5625 L 9.421875 -8.5625 C 9.109375 -9.207031 8.703125 -9.664062 8.203125 -9.9375 C 7.710938 -10.21875 7.078125 -10.359375 6.296875 -10.359375 C 5.578125 -10.359375 4.9375 -10.195312 4.375 -9.875 C 3.820312 -9.550781 3.382812 -9.039062 3.0625 -8.34375 C 2.738281 -7.65625 2.578125 -6.769531 2.578125 -5.6875 C 2.578125 -4.613281 2.738281 -3.726562 3.0625 -3.03125 C 3.382812 -2.34375 3.820312 -1.835938 4.375 -1.515625 C 4.9375 -1.203125 5.578125 -1.046875 6.296875 -1.046875 C 7.117188 -1.046875 7.789062 -1.226562 8.3125 -1.59375 C 8.84375 -1.96875 9.234375 -2.570312 9.484375 -3.40625 L 9.6875 -3.40625 L 10.578125 -2.953125 C 10.304688 -1.953125 9.804688 -1.179688 9.078125 -0.640625 C 8.347656 -0.109375 7.421875 0.15625 6.296875 0.15625 Z M 6.296875 0.15625 "/></g></g></g><g fill="#000000" fill-opacity="1"><g transform="translate(170.847516, 171.028874)"><g><path d="M 5.40625 -11.390625 C 6.5625 -11.390625 7.550781 -11.179688 8.375 -10.765625 C 9.207031 -10.359375 9.847656 -9.726562 10.296875 -8.875 C 10.742188 -8.03125 10.96875 -6.96875 10.96875 -5.6875 C 10.96875 -4.414062 10.742188 -3.351562 10.296875 -2.5 C 9.847656 -1.65625 9.207031 -1.023438 8.375 -0.609375 C 7.550781 -0.203125 6.5625 0 5.40625 0 L 1.71875 0 L 1.71875 -11.390625 Z M 5.28125 -1.140625 C 6.226562 -1.140625 7.007812 -1.285156 7.625 -1.578125 C 8.25 -1.878906 8.722656 -2.363281 9.046875 -3.03125 C 9.367188 -3.695312 9.53125 -4.582031 9.53125 -5.6875 C 9.53125 -6.800781 9.367188 -7.691406 9.046875 -8.359375 C 8.722656 -9.023438 8.25 -9.503906 7.625 -9.796875 C 7.007812 -10.097656 6.226562 -10.25 5.28125 -10.25 L 3.0625 -10.25 L 3.0625 -1.140625 Z M 5.28125 -1.140625 "/></g></g></g><g fill="#000000" fill-opacity="1"><g transform="translate(82.629646, 118.2147)"><g><path d="M 3.0625 -5.359375 L 3.0625 -1.109375 L 8.859375 -1.109375 L 8.859375 0 L 1.71875 0 L 1.71875 -11.390625 L 8.734375 -11.390625 L 8.734375 -10.28125 L 3.0625 -10.28125 L 3.0625 -6.46875 L 8.0625 -6.46875 L 8.0625 -5.359375 Z M 3.0625 -5.359375 "/></g></g></g></svg>